<!DOCTYPE svg PUBLIC "-//W3C//DTD SVG 1.1//EN" "http://www.w3.org/Graphics/SVG/1.1/DTD/svg11.dtd">
<!-- Uploaded to: SVG Repo, www.svgrepo.com, Transformed by: SVG Repo Mixer Tools -->
<svg fill="#ffffff" width="800px" height="800px" viewBox="0 0 512 512" version="1.1" xml:space="preserve" xmlns="http://www.w3.org/2000/svg" xmlns:xlink="http://www.w3.org/1999/xlink" stroke="#ffffff">
<g id="SVGRepo_bgCarrier" stroke-width="0"/>
<g id="SVGRepo_tracerCarrier" stroke-linecap="round" stroke-linejoin="round"/>
<g id="SVGRepo_iconCarrier"> <g id="Labour_Law"> <g id="XMLID_360_"> <path d="M343,250.612c0-14.696-5.742-28.453-16.016-38.736c-2.176-2.176-3.984-4.138-6.984-5.886v12.295 c0,5.502-4.498,9.963-10,9.963c-5.502,0-10-4.46-10-9.963v-26.945c0-1.168,0-2.383,0-3.597V174h-23v12.619 c0,1.967,0,3.984,0,5.828v25.838c0,5.502-4.498,9.963-10,9.963c-5.502,0-10-4.46-10-9.963v-12.159c-14,10.12-23,26.572-23,44.486 V262h109V250.612z" id="XMLID_361_"/> <path d="M82.886,487.5c0,12.333,10.033,22.5,22.365,22.5H429v-43.871V465H105.251 C92.919,465,82.886,475.167,82.886,487.5z" id="XMLID_362_"/> <path d="M127,445V2h-3.862C100.943,2,83,20.01,83,42.205v409.608c7-4.063,14.043-6.813,22.251-6.813H127z" id="XMLID_367_"/> <path d="M294.628,59.452L322,79.824V2h-67v77.824l27.418-20.372C285.96,56.795,291.085,56.795,294.628,59.452z" id="XMLID_368_"/> <rect height="23" id="XMLID_369_" width="153" x="212" y="282"/> <path d="M342,2v97.749c0,3.774-2.381,7.223-5.757,8.911c-3.372,1.688-7.61,1.324-10.63-0.941l-37.157-27.844 l-37.151,27.844c-1.758,1.318-3.891,1.993-6.008,1.993c-1.519,0-3.189-0.347-4.6-1.052c-3.375-1.688-5.698-5.137-5.698-8.911V2 h-88v443h282V2H342z M192,272.164c0-5.502,4.732-10.164,10.234-10.164H214v-11.388c0-29.059,17-55.303,43-67.537v-18.671 c0-5.502,4.388-10.405,9.89-10.405h43.104c5.502,0,10.006,4.902,10.006,10.405v18.553c8,3.634,14.874,8.592,21.114,14.832 C355.15,211.839,363,230.597,363,250.612V262h11.649c5.502,0,10.351,4.662,10.351,10.164v43.104c0,5.502-4.849,9.732-10.351,9.732 H202.234c-5.502,0-10.234-4.23-10.234-9.732V272.164z M385.628,411H191.357c-5.502,0-9.963-4.498-9.963-10s4.461-10,9.963-10 h194.271c5.502,0,9.963,4.498,9.963,10S391.13,411,385.628,411z M385.628,369H191.357c-5.502,0-9.963-4.498-9.963-10 s4.461-10,9.963-10h194.271c5.502,0,9.963,4.498,9.963,10S391.13,369,385.628,369z" id="XMLID_370_"/> </g> </g> <g id="Layer_1"/> </g>
</svg>