<!DOCTYPE svg PUBLIC "-//W3C//DTD SVG 1.1//EN" "http://www.w3.org/Graphics/SVG/1.1/DTD/svg11.dtd">
<!-- Uploaded to: SVG Repo, www.svgrepo.com, Transformed by: SVG Repo Mixer Tools -->
<svg fill="#ffffff" width="800px" height="800px" viewBox="0 0 512 512" version="1.1" xml:space="preserve" xmlns="http://www.w3.org/2000/svg" xmlns:xlink="http://www.w3.org/1999/xlink" stroke="#ffffff">
<g id="SVGRepo_bgCarrier" stroke-width="0"/>
<g id="SVGRepo_tracerCarrier" stroke-linecap="round" stroke-linejoin="round"/>
<g id="SVGRepo_iconCarrier"> <g id="Helmet"> <g id="XMLID_1023_"> <path d="M487.681,390H24.319c-12.333,0-22.365,9.667-22.365,22s10.033,22,22.365,22h463.363 c12.333,0,22.365-9.667,22.365-22S500.014,390,487.681,390z" id="XMLID_1024_"/> <path d="M405.179,203.933C382.621,181.374,356,164.093,325,153.672v96.94c0,5.502-4.498,9.963-10,9.963 c-5.502,0-10-4.46-10-9.963V109.721C305,91.891,290.799,78,272.968,78H271v119.221c0,5.502-4.498,9.963-10,9.963 c-5.502,0-10-4.46-10-9.963V78h-1.192C231.977,78,217,91.891,217,109.721v140.891c0,5.502-4.498,9.963-10,9.963 c-5.502,0-10-4.46-10-9.963V150.223C121,172.436,62.388,238,48.169,316h415.765C456.447,274,436.16,234.913,405.179,203.933z" id="XMLID_1025_"/> <path d="M467,352.983c0-5.8-0.039-11.983-0.502-16.983H45.522C45.044,341,45,347.178,45,352.983V370h422V352.983 z" id="XMLID_1026_"/> </g> </g> <g id="Layer_1"/> </g>
</svg>